<svg xmlns="http://www.w3.org/2000/svg" xmlns:xlink="http://www.w3.org/1999/xlink"><symbol id="htmlacademy" viewBox="0 0 60 60"><path fill="#2E368F" d="M30.2 5h-.2l-19.7 2.1v36.2l19.7 11.7 19.7-11.7v-36.2l-19.5-2.1zm17 36.8l-17.2 10.2-17.2-10.2v-14.8l17.1 10.2v1.8l-11.7-7v1.8l11.8 7.1v1.9l-11.8-7v1.8l11.8 7 11.9-7.1v-7.6l5.3-3.2v15.1zm-.1-17l-4.7 2.8-2.2 1.3-10.3-6.1v1.8l8.8 5.3h-.1l-.2.1-1.3.7-7.3-4.3v1.8l5.8 3.4-1.4.9-4.3-2.6v1.8l2.9 1.7-2.9 1.7-17-10.1 17-10.2 17.2 10zm.1-1.8l-17.3-10.2-17.1 10.2v-13.6l17.2-1.8 17.2 1.8v13.6z"/></symbol><symbol id="icon-cat-pro" viewBox="0 0 134 56">
  <g>
    <path d="M123.1,5.8c1.2-1.9,2.7-3.4,4.5-4.6c1-0.7,1.6-0.7,2.2,0.6c0.8,1.9,1.5,3.9,0.9,6c-0.2,0.8-0.1,1.4,0.4,2.1
    c0.6,0.8,1.1,1.6,1.6,2.3c1.3,1.9,1.8,3.9,0.9,6.2c-0.4,1-0.4,2-0.2,3.1c0.2,1,0.2,2,0,3c-0.3,1.6-1.1,2.7-2.7,3.2
    c-1.3,0.3-2.4,0.9-3.2,2c-0.2,0.3-0.5,0.5-0.9,0.5c-1.2,0.2-4.2-2.5-4.2-3.7c0-0.2,0-0.4,0-0.6c0.1-3.6-0.1-3.9-3.4-5.4
    c-0.7-0.3-1.3-0.6-1.8-1.2c-0.6-0.8-1.4-0.7-2.3-0.4c-0.8,0.4-1.4,0.9-1.3,1.9c0.3,2.4,0.4,4.8,0.3,7.3c0,0.3,0.1,0.6,0.2,0.8
    c3.1,4.5,4.3,9.8,5.8,14.9c1.2,3.9,3.4,6,7.4,6.3c0.6,0,1.3,0.2,1.9,0.3c1.8,0.3,2.9,1.5,3.4,3.2c0.7,2.1,0.3,2.6-1.8,2.6
    c-2.2,0-4.3,0-6.5,0c-0.9,0-1.6-0.2-2.3-0.8c-1-1-2.2-1.4-3.4-2c-1.3-0.6-2.6-1.3-3.4-2.6c-1.1-1.7-2.6-3.1-4-4.5
    c-2.8-2.9-5.8-5.7-8.4-8.7c-1.9-2.2-3.2-4.6-3.2-7.6c0-0.9-0.2-1.3-1.2-0.9c-0.3,0.2-0.7,0.3-1,0.3c-2.8,0-4.2,1.7-5.2,4.2
    c-0.9,2.1-2.1,4.1-3.2,6.2C88.5,40.9,88,42.4,88,44c0,2.4,0.6,3.2,2.8,4c1.4,0.5,2.7,1,3.4,2.4c0.8,1.6,0.6,2-1.1,2.1
    c-2.3,0-4.5,0-6.8,0c-0.9,0-1.5-0.3-1.9-1.1c-0.6-1-1.2-2-1.8-3c-1-1.7-1.4-3.4-0.7-5.4c0.6-1.7,0.3-3.6,0.1-5.3
    c-0.4-2.6,0-4.9,1.7-7c0.6-0.7,0.6-1-0.4-1.2c-4.1-0.8-8-2.3-11.8-4.1c0,0-0.1,0-0.1-0.1c-3.2-1.2-3.8-1-4.7,2.3
    c-0.8,2.8-1.6,5.6-2.2,8.5c-0.7,3.2,0.1,6.2,1.1,9.2c0.4,1.2,1.6,1.1,2.5,1.4c2,0.6,3.7,1.4,4.5,3.5c0.7,1.6,0.6,1.8-1.1,1.8
    c-1.7,0-3.4-0.1-5.2,0c-1.6,0.1-2.8-0.5-4.2-1.4c-4.8-3.2-6.2-8.1-6.6-13.4c-0.2-3.3-2-5.9-4.1-8.4c-0.4-0.5-0.8-0.7-1.4-0.3
    c-2.1,1.3-4.5,2.1-6.7,3c-4.8,1.8-9,4.6-12.2,8.8c-1.2,1.5-1.9,3.2-2.2,5.1c-0.3,1.8,0.2,2.6,2,3.1c1.9,0.6,2.7,1.5,2.9,3.4
    c0.1,0.8-0.2,1.2-1,1.2c-2.7,0-5.4,0-8.1,0c-0.6,0-1-0.4-1.3-0.8c-1.3-1.6-1.9-3.5-1.9-5.5c-0.1-3.5,0.3-6.9,0.9-10.3
    c0.4-2.1,1.4-3.8,3.4-4.8c5.9-2.8,9-8.1,11.8-13.6c0.6-1.1,0.1-1.3-0.9-1.2c-2.9,0.3-5.4,1.6-7.7,3.2c-3,2.1-5.7,4.6-8.3,7.1
    c-2.9,2.7-6.2,4.6-10.3,4.9C3.1,32.5-0.3,28.4,0,21.8c0.1-2.3,0.9-4.4,2.4-6.1c1.2-1.3,2.6-2,4.5-1.5c1.5,0.4,1.9,1.2,1.3,2.7
    c-0.3,0.6-0.7,1.1-1,1.7c-0.4,0.6-0.8,1.3-1,2c-1.1,3,0.4,5.1,3.5,5.4c3.3,0.3,6-1.1,8.5-3.1c3-2.4,5.7-5.2,8-8.3
    c3.7-4.8,8.5-7.3,14.4-8.1c2.3-0.3,4.3-1.3,6.5-1.9c4.1-1.2,8.3-1.9,12.7-1.8c2,0.1,3.9-0.3,5.8-1.1c4.9-2,10-2,15.1-1
    c4,0.8,8,1.8,11.9,2.8c2.2,0.5,4.7,0.3,7-0.2c4.4-1,8.9-1.9,13.4-2c3-0.1,5.9,0.4,8.6,1.7C123.6,3.9,123.6,3.9,123.1,5.8z"/>
  </g>
</symbol><symbol id="icon-cat-slim" viewBox="0 0 70 97">
  <g>
    <path d="M54.8,0c-0.1,0-0.3,0-0.4,0c-0.7,0.4-1.1,0.9-1.4,1.6c-0.6,1.1-1,2.3-1.3,3.4c-0.2,0.8-0.7,1.2-1.5,1.3
    c-2.3,0.4-4,1.7-5.2,3.7c-0.7,1.3-1.3,2.6-1.8,3.9c-1.4,3.7-2.5,7.5-3.8,11.2C38.7,27,38.6,27,36.7,27c-2.3,0-2.1-0.4-2.1,2.1
    c0,0.8,0.2,1.2,1.1,1.2c0.3,0,0.7-0.1,0.8,0.2c0.1,0.3-0.2,0.5-0.4,0.7c-1.2,1.3-2.7,2-4.3,2.4c-1.9,0.5-3.8,0.9-5.7,1.5
    c-4.7,1.6-9.1,3.8-12.6,7.6c-2.1,2.3-3.5,5-4.7,7.8C5,59.2,3.2,68.3,1.8,77.5c-0.6,4.3-1.1,8.6-1.5,13C0.2,92.7,0,94.8,0,97
    c11.1,0,22.2,0,33.3,0c0.1-0.5-0.1-0.9-0.2-1.3c-0.7-1.8-2.1-2.7-3.8-3.1c-0.7-0.2-0.8-0.4-0.4-0.9c0.7-0.9,1.2-2,1.6-3.1
    c1.6-4.8,2.3-9.8,3.1-14.8C34.2,70,35.1,66.4,37,63c1.5-2.5,3.3-4.6,5.6-6.4c0.8-0.6,0.9-0.6,1,0.4c0.1,0.7,0.1,1.4,0.2,2.2
    c0.3,4.7,0.3,9.5-0.2,14.2c-0.3,3.7-0.5,7.4-0.2,11c0.4,4.3,1.2,8.4,2.2,12.6c4.4,0,8.9,0,13.3,0c-0.3-2.2-2.1-4-4.2-4.4
    c-1.3-0.2-2.5-0.1-3.8,0.2c-0.6,0.1-0.8,0-0.9-0.6c-0.4-5.3-0.1-10.6,1-15.8c1.3-6,2.4-12.1,3.1-18.2c0.3-2.5,1-4.8,2.3-7
    c1.2-2.1,2.2-4.3,3.4-6.5c0.9-1.7,1.1-3.4,0.4-5.2c-0.3-0.7-0.5-1.4-0.9-2.1c-1-2-2-3.9-2.9-5.9c-0.5-1-0.4-1.1,0.7-1.1
    c1.6,0,1.6,0,1.7-1.6c0-0.2,0-0.4,0-0.7c0-0.7-0.3-1.1-1-1c-0.5,0-1,0-1.5,0c-0.7,0-0.9-0.3-0.7-1c0.6-2.3,2.8-4.1,5.1-4.4
    c2.2-0.3,4.4,0,6.6,0.4c0.6,0.1,1,0,1.3-0.6c0.4-1,0.8-2,1.3-3c0.2-0.4,0.2-0.8-0.1-1.1C66.6,13.2,63.1,9.4,58.4,7
    c-0.5-0.3-0.8-0.6-0.9-1.1c-0.3-1.4-0.7-2.8-1.3-4.2C55.9,1,55.6,0.4,54.8,0z"/>
  </g>
</symbol><symbol id="icon-close" viewBox="0 0 18 18">
  <polygon points="18,1.3 16.7,0 9,7.7 1.3,0 0,1.3 7.7,9 0,16.7 1.3,18 9,10.3 16.7,18 18,16.7 10.3,9 "/>
</symbol><symbol id="icon-fb-mobile" viewBox="0 0 10 19">
  <g>
    <path d="M7.1,19H2v-8.8H0V5.8h1.9c-0.1-2,0.2-3.4,1.1-4.4C3.8,0.5,5,0.1,6.5,0L10,0v4.2H7.2C7.1,4.4,7,5,7,5.8H10v4.4H7.1V19z
      M3.1,18h2.8V9.1h2.9V6.8H5.9l0-0.5c0-1.4,0-2.6,0.7-3.1l0.1-0.1h2.1V1H6.5c-1.2,0.1-2,0.4-2.6,1c-0.8,0.8-1,2.3-0.8,4.2l0.1,0.6
    H1.1v2.3h2V18z"/>
  </g>
</symbol><symbol id="icon-fb" viewBox="34.789 -4.709 13.518 27.75">
  <g>
    <path d="M44.32,23.041h-6.816V10.137h-2.715V3.763h2.629c-0.202-2.887,0.298-5,1.519-6.444c1.039-1.229,2.583-1.911,4.588-2.026
    l4.782-0.001v6.15h-3.755c-0.166,0.315-0.251,1.093-0.252,2.321h3.978v6.375H44.32V23.041z M39.004,21.541h3.816V8.637h3.957V5.263
    h-3.953l-0.016-0.734c-0.044-2.04,0.002-3.784,1.007-4.46l0.19-0.127h2.801v-3.15h-3.239c-1.557,0.091-2.711,0.581-3.485,1.496
    c-1.041,1.231-1.41,3.298-1.099,6.144l0.092,0.832h-2.786v3.375h2.715V21.541z"/>
  </g>
</symbol><symbol id="icon-gift" viewBox="0 0 55.5 60">
  <path d="M52.3,12.2h-7c0.5-0.7,0.8-1.4,1.1-2.2c0.6-2,0.4-4.1-0.6-5.9c-1-1.8-2.6-3.1-4.6-3.7c-2-0.6-4.1-0.4-5.9,0.6
  c-3.6,2-6.2,6.1-7.6,9c-1.4-2.9-4-7.1-7.6-9c-3.8-2-8.5-0.6-10.5,3.1c-1.4,2.7-1.2,5.8,0.5,8.1h-7c-1.7,0-3.1,1.4-3.1,3.1v9.4
  c0,1.7,1.4,3.1,3.1,3.1H4v26.1c0,3.3,2.7,6,6,6h35.5c3.3,0,6-2.7,6-6V27.8h0.8c1.7,0,3.1-1.4,3.1-3.1v-9.4
  C55.5,13.6,54.1,12.2,52.3,12.2z M36.5,3c1.3-0.7,2.7-0.8,4.1-0.4C41.9,3,43,3.9,43.7,5.2c0.7,1.3,0.8,2.7,0.4,4.1
  c-0.4,1.2-1.1,2.2-2.2,2.9H29.4C30.5,9.6,33,5,36.5,3z M11.7,5.2C13.2,2.6,16.4,1.6,19,3c3.5,1.9,6,6.6,7.1,9.1H13.5
  C11.2,10.7,10.4,7.6,11.7,5.2z M26.5,27.8v13.7H6.4V27.8H26.5z M6.4,53.9v-10h20.2v13.7H10C8,57.6,6.4,55.9,6.4,53.9z M45.5,57.6
  H28.9V43.9h20.2v10C49.1,55.9,47.5,57.6,45.5,57.6z M49.1,41.5H28.9V27.8h20.2V41.5z M53.1,24.7c0,0.4-0.3,0.7-0.7,0.7h-2
  c0,0,0,0,0,0s0,0,0,0H27.7c0,0,0,0,0,0s0,0,0,0H5.2c0,0,0,0,0,0s0,0,0,0h-2c-0.4,0-0.7-0.3-0.7-0.7v-9.4c0-0.4,0.3-0.7,0.7-0.7h49.2
  c0.4,0,0.7,0.3,0.7,0.7V24.7z"/>
</symbol><symbol id="icon-insta-mobile" viewBox="0 0 16 16">
  <style type="text/css">
    .st0 {
      fill: #231F20;
    }
  </style>
  <path class="st0" d="M11.8,1C13.6,1,15,2.4,15,4.2v7.7c0,1.7-1.4,3.1-3.1,3.1H4.2C2.4,15,1,13.6,1,11.8V4.2C1,2.4,2.4,1,4.2,1
  L11.8,1 M11.8,0H4.2C1.9,0,0,1.9,0,4.2v7.7C0,14.1,1.9,16,4.2,16h7.7c2.3,0,4.2-1.9,4.2-4.2V4.2C16,1.9,14.1,0,11.8,0L11.8,0z"/>
  <path class="st0" d="M8,4.9c1.7,0,3.1,1.4,3.1,3.1c0,1.7-1.4,3.1-3.1,3.1c-1.7,0-3.1-1.4-3.1-3.1C4.9,6.3,6.3,4.9,8,4.9 M8,3.9
  C5.7,3.9,3.9,5.7,3.9,8s1.8,4.1,4.1,4.1s4.1-1.8,4.1-4.1S10.3,3.9,8,3.9L8,3.9z"/>
  <circle class="st0" cx="12.3" cy="3.7" r="0.9"/>
</symbol><symbol id="icon-insta" viewBox="-3 -3 23 23">
  <path fill="#231F20" d="M14.002-1.501c2.48,0,4.498,2.02,4.498,4.501v11c0,2.481-2.018,4.5-4.498,4.5H3.01
  c-2.48,0-4.498-2.019-4.498-4.5V3c0-2.481,2.018-4.5,4.498-4.5h10.992 M14.002-3H3.01C-0.29-3-2.987-0.301-2.987,3v11.001
  C-2.987,17.299-0.29,20,3.01,20h10.995C17.301,20,20,17.299,20,13.999V3C20-0.301,17.301-3,14.002-3L14.002-3z"/>
  <path fill="#231F20" d="M8.506,4.078c2.44,0,4.429,1.985,4.429,4.428c0,2.44-1.989,4.43-4.429,4.43c-2.443,0-4.428-1.989-4.428-4.43
  C4.078,6.063,6.063,4.078,8.506,4.078 M8.506,2.578c-3.273,0-5.928,2.654-5.928,5.928s2.654,5.927,5.928,5.927
  c3.274,0,5.926-2.653,5.926-5.927S11.78,2.578,8.506,2.578L8.506,2.578z"/>
  <circle fill="#231F20" cx="14.646" cy="2.379" r="1.341"/>
</symbol><symbol id="icon-mail" viewBox="0 0 17 13">
  <path d="M15.6,11.6H1.4V5.8H0V13h17V5.8h-1.4V11.6z M0,0v2.3l8.5,7.1L17,2.3V0H0z M15.6,1.6L8.5,7.5L1.4,1.6V1.4h14.2L15.6,1.6z"/>
</symbol><symbol id="icon-mobile-menu" viewBox="0 0 24 18">
  <rect y="16" width="24" height="2"/>
  <rect y="8" width="24" height="2"/>
  <rect width="24" height="2"/>
</symbol><symbol id="icon-phone" viewBox="0 0 20 20">
  <path d="M17.9,9.4H9.4v1.2h8.5l-2.1,2.1l0.9,0.9l3.1-3.1c0.2-0.2,0.2-0.6,0-0.9l-3.1-3.1l-0.9,0.9L17.9,9.4z"/>
  <path d="M8.1,19.4v-6.2c0-0.3-0.3-0.6-0.6-0.6H4.4l0,0H3.1l0,0c0,0.7,0.6,1.2,1.2,1.2h2.5v5H3.1c-1,0.1-1.8-0.7-1.9-1.7
  c0-0.1,0-0.1,0-0.2V3.1c0-1,0.8-1.8,1.7-1.8c0.1,0,0.1,0,0.2,0h3.7v5H4.4c-0.7,0-1.2,0.6-1.2,1.2h4.4c0.3,0,0.6-0.3,0.6-0.6V0.6
  C8.1,0.3,7.8,0,7.5,0H3.1C1.5-0.1,0.1,1.2,0,2.9C0,3,0,3.1,0,3.1v13.7c-0.1,1.7,1.2,3.1,2.9,3.1c0.1,0,0.2,0,0.2,0h4.4
  C7.8,20,8.1,19.7,8.1,19.4z"/>
</symbol><symbol id="icon-plus-mobile" viewBox="0 0 30 30">
  <style type="text/css">
    .st0 {
      fill: #231F20;
    }
  </style>
  <polygon class="st0" points="30,14 16,14 16,0 14,0 14,14 0,14 0,16 14,16 14,30 16,30 16,16 30,16 "/>
</symbol><symbol id="icon-plus" viewBox="0 0 60 60">
  <style type="text/css">
    .st0 {
      fill: #231F20;
    }
  </style>
  <polygon class="st0" points="60,29.5 30.5,29.5 30.5,0 29.5,0 29.5,29.5 0,29.5 0,30.5 29.5,30.5 29.5,60 30.5,60 30.5,30.5
  60,30.5 "/>
</symbol><symbol id="icon-right-arrow-long" viewBox="0 0 24.2 11">
  <style type="text/css">
    .st0 {
      fill: #3F4242;
    }
  </style>
  <polygon class="st0" points="17.6,0 24.2,5.5 17.6,11 17.6,6.6 0,6.6 0,4.4 17.6,4.4 "/>
</symbol><symbol id="icon-right-arrow-verylong" viewBox="0 0 32 11">
  <style type="text/css">
    .st0 {
      fill: #3F4242;
    }
  </style>
  <polygon class="st0" points="25.4,0 32,5.5 25.4,11 25.4,6.6 0,6.6 0,4.4 25.4,4.4 "/>
</symbol><symbol id="icon-tick" viewBox="0 0 21.1 15.5">
  <polygon points="20.1,0 7.7,13.3 1,6.1 0,7.2 7.6,15.4 7.7,15.5 21,1.2 21.1,1.1 "/>
</symbol><symbol id="icon-vk-mobile" viewBox="0 0 22 12">
  <g>
    <path d="M17.6,12c-0.3,0-0.9-0.1-1.5-0.5c-0.5-0.3-0.9-0.7-1.3-1.2c-0.3-0.3-0.9-0.9-1.1-0.9c-0.2,0.1-0.4,0.7-0.3,1.2
    c0,0.1,0,0.6-0.3,0.9c-0.3,0.3-0.8,0.4-0.9,0.4l-1.4,0c-0.7,0-3.2-0.2-5.4-2.3C2.5,7.1,0.2,2.2,0.1,2C0,1.6-0.1,1.2,0.2,0.9
    c0.3-0.3,0.8-0.4,1-0.4l3,0l0.1,0c0.1,0,0.4,0.1,0.7,0.3c0.3,0.2,0.4,0.5,0.5,0.6c0,0,0.5,1.1,1.1,2c1,1.5,1.4,1.9,1.5,2
    C8.2,5,8.3,4,8.2,3.1c0-0.4-0.1-0.8-0.2-1C7.9,2,7.7,1.9,7.5,1.9L6.9,1.4C6.9,0.9,7.4,0.5,7.8,0.3C8.3,0.1,9.1,0,10.1,0l0.5,0
    c0.9,0,1.2,0.1,1.6,0.1c1.2,0.3,1.2,1.3,1.1,2.5c0,0.4,0,0.8,0,1.2c0,0.1,0,0.2,0,0.4c0,0.3,0,0.8,0.1,1c0.2-0.1,0.6-0.5,1.5-1.9
    c0.6-0.9,1-1.9,1.1-2.1l0,0c0.1-0.3,0.4-0.7,1.2-0.7l3.1,0c0,0,0.1,0,0.3,0c0.7,0,1.2,0.2,1.3,0.7c0.2,0.5,0.1,1.3-1.7,3.5
    c-0.3,0.3-0.5,0.6-0.7,0.9C19,6,18.6,6.6,18.6,6.7c0,0.1,0.5,0.5,0.9,0.9c1.1,0.9,1.9,1.7,2.2,2.3c0.4,0.6,0.3,1,0.2,1.3
    c-0.3,0.7-1.2,0.7-1.4,0.8l-2.8,0C17.7,12,17.6,12,17.6,12z M13.7,8.3c0.7,0,1.2,0.6,1.8,1.2c0.4,0.4,0.7,0.8,1.1,1
    c0.5,0.3,1,0.3,1,0.3l0.1,0l2.8,0c0.1,0,0.3-0.1,0.4-0.1c0,0,0-0.1-0.1-0.1c-0.3-0.5-1-1.3-2-2.1c-0.9-0.7-1.3-1.1-1.4-1.7
    c0-0.6,0.4-1.1,1.2-2.1c0.2-0.2,0.4-0.5,0.7-0.8c1.1-1.4,1.4-2,1.5-2.3c-0.1,0-0.5,0-0.5,0l-3.2,0c-0.1,0-0.2,0-0.2,0
    C16.9,2,16.4,3.1,15.8,4c-1.4,2.1-2,2.4-2.5,2.4c-0.1,0-0.3,0-0.4-0.1c-0.7-0.4-0.7-1.4-0.7-2.1c0-0.1,0-0.2,0-0.3
    c0-0.5,0-0.9,0-1.3c0.1-1.3,0-1.3-0.3-1.4c-0.3-0.1-0.5-0.1-1.4-0.1l-0.5,0c-0.5,0-1,0-1.4,0.1c0.1,0.1,0.1,0.1,0.2,0.2
    c0.4,0.5,0.4,1.5,0.4,1.7c0.1,1.3,0,2.9-0.7,3.3C8.4,6.4,8.3,6.5,8.1,6.5C7.5,6.5,6.8,5.8,5.6,4C5,2.9,4.5,1.8,4.5,1.8
    c0,0,0-0.1-0.1-0.1c-0.1,0-0.2-0.1-0.2-0.1l-2.9,0c0,0,0,0-0.1,0c0.4,0.9,2.5,5,4.8,7.2c2,1.9,4.3,2,4.7,2l1.4,0c0,0,0.2,0,0.2-0.1
    c0,0,0,0,0-0.1c0-0.2,0-2,1.2-2.3C13.5,8.3,13.6,8.3,13.7,8.3z"/>
  </g>
</symbol><symbol id="icon-vk" viewBox="3.007 11.628 30.004 15.761">
  <g>
    <path d="M26.945,27.388c-0.386,0-1.17-0.082-2.075-0.632c-0.642-0.385-1.223-0.968-1.784-1.532
    c-0.438-0.44-1.171-1.177-1.447-1.177c-0.268,0.075-0.481,0.921-0.476,1.569c0.004,0.113-0.001,0.774-0.468,1.213
    c-0.425,0.4-1.088,0.485-1.216,0.498l-1.926,0.007c-0.967,0-4.358-0.218-7.429-3.021c-3.674-3.358-6.835-9.798-6.968-10.07
    c-0.197-0.462-0.248-1.066,0.152-1.482c0.392-0.413,1.081-0.472,1.359-0.479l4.083-0.024l0.115,0.008
    c0.091,0.014,0.567,0.095,0.957,0.349c0.388,0.247,0.59,0.651,0.626,0.73c0.01,0.021,0.649,1.432,1.475,2.684
    c1.312,1.99,1.896,2.455,2.103,2.562c0.188-0.417,0.277-1.7,0.187-2.871c0.001-0.493-0.101-1.098-0.252-1.278
    c-0.112-0.134-0.426-0.253-0.778-0.294l-0.722-0.691c-0.096-0.658,0.635-1.226,1.149-1.446c0.737-0.316,1.792-0.382,3.147-0.382
    l0.71,0.005c1.235,0.012,1.622,0.081,2.149,0.191c1.702,0.361,1.64,1.729,1.567,3.312c-0.021,0.464-0.046,1.001-0.046,1.621
    c0,0.151-0.005,0.312-0.011,0.479c-0.012,0.38-0.032,1.038,0.093,1.304c0.219-0.145,0.852-0.665,2.072-2.483
    c0.783-1.165,1.4-2.539,1.517-2.803l0.001-0.001c0.182-0.43,0.608-0.941,1.613-0.946l4.274-0.024
    c0.012-0.003,0.172-0.016,0.377-0.016c0.98,0,1.597,0.287,1.832,0.854c0.269,0.65,0.169,1.657-2.354,4.605
    c-0.37,0.432-0.697,0.804-0.982,1.127c-0.598,0.678-1.216,1.379-1.237,1.595c0.053,0.169,0.662,0.665,1.252,1.145
    c1.53,1.247,2.528,2.264,3.033,3.073c0.522,0.759,0.429,1.33,0.258,1.677c-0.424,0.864-1.638,0.973-1.877,0.985l-3.79,0.047
    C27.153,27.382,27.063,27.388,26.945,27.388z M21.638,22.548c0.899,0,1.682,0.786,2.511,1.618c0.497,0.5,1.011,1.016,1.496,1.307
    c0.727,0.44,1.316,0.421,1.398,0.412l0.103-0.009l3.805-0.047c0.171-0.012,0.411-0.073,0.536-0.136
    c-0.018-0.039-0.048-0.094-0.098-0.167c-0.449-0.718-1.388-1.659-2.686-2.718c-1.184-0.963-1.801-1.465-1.865-2.244
    c-0.066-0.805,0.493-1.439,1.607-2.703c0.28-0.318,0.604-0.685,0.967-1.109c1.559-1.821,1.957-2.64,2.058-2.956
    c-0.17-0.029-0.648-0.021-0.678-0.018l-4.361,0.028c-0.191,0.001-0.249,0.035-0.249,0.036c-0.176,0.414-0.812,1.812-1.644,3.05
    c-1.895,2.82-2.785,3.2-3.407,3.201c-0.204,0-0.396-0.05-0.569-0.148c-1.003-0.569-0.963-1.834-0.934-2.757
    c0.005-0.149,0.01-0.295,0.01-0.431c0-0.646,0.025-1.207,0.048-1.689c0.076-1.68,0.016-1.692-0.379-1.776
    c-0.409-0.086-0.705-0.147-1.856-0.159l-0.693-0.005c-0.624,0-1.343,0.014-1.906,0.098c0.092,0.074,0.18,0.157,0.259,0.251
    c0.588,0.704,0.604,1.951,0.601,2.194c0.13,1.646,0.061,3.796-1.018,4.313c-0.191,0.092-0.392,0.137-0.597,0.137
    c-0.926,0-1.854-0.885-3.425-3.267c-0.895-1.354-1.56-2.824-1.587-2.887c-0.011-0.021-0.054-0.077-0.075-0.094
    c-0.083-0.054-0.233-0.097-0.32-0.116l-4.001,0.024c-0.021,0.001-0.045,0.002-0.07,0.005c0.591,1.189,3.426,6.592,6.519,9.419
    c2.74,2.502,5.826,2.629,6.417,2.629l1.851-0.003c0.046-0.01,0.218-0.062,0.269-0.1c-0.019,0.018-0.01-0.053-0.01-0.097
    c-0.003-0.265,0.012-2.595,1.578-3.034C21.369,22.566,21.502,22.548,21.638,22.548z"/>
  </g>
</symbol><symbol id="logo-desktop" viewBox="0 0 202 59.5">
  <style type="text/css">
    .st0 {
      fill: #FDC305;
    }
    .st1 {
      fill: #F06351;
    }
    .st2 {
      fill: #E55645;
    }
    .st3 {
      fill: #111111;
    }
    .st4 {
      fill: #444444;
    }
  </style>
  <path class="st0" d="M59.9,24c-5.5-13-20.5-19.2-33.5-13.8S7.2,30.7,12.6,43.7c3.6,8.6,11.3,14.2,19.9,15.5
  c-0.6-2.1-1.2-4.4-1.7-6.9c1.5,1,3.1,1.8,4.8,2.6c0,0,0,0,0,0c0,0,0.1,2.2,0.3,4.6c1.8,0,3.6-0.1,5.3-0.5c0-0.2,0-0.4,0-0.8
  c0.3-1.9,1.1-5.2,1.2-7.4c1.1-1.1,2.1-2.3,2.9-3.7c0,0,0,0,0,0c0,0.1,0,0.3-0.1,0.4c-0.6,4.3-1.7,8.8-2.4,10.1
  c-0.2,0.4-0.5,0.9-0.8,1.2c1.4-0.3,2.7-0.8,4.1-1.3C59.2,52,65.3,37,59.9,24z M58.4,27.8c-0.4,0.4-1.3,0.7-1.5-0.6S56.7,25,56.7,25
  s-1.9-3.4-2.7-3.5c-0.7,0-5.8,3.5-7.2,5c-1.2,1.3-1.4,1.2-1.4,3.5c0,1.7,0.2,8.2,0.1,13.1v0v0c0,0-2.2,0.6-8.1,2.2
  c-6,1.6-7.8,1.8-7.8,1.8l-1-5.8c0,0,0,0,0,0c0,0,0,0,0,0c0,0,0,0,0,0c0,0,0,0,0,0c0,0,0,0,0,0c0,0,0,0,0,0L25.9,28
  c0,0-3.8-1.4-5.2-1.8c-1.4-0.4-2.3-0.7-4,0.6c-1.8,1.3-1.7,3.9-1.7,3.9s0.4,1,0.5,1.4c0,0.5-1.2,0.4-2,0.4s-0.9-1.4-0.3-3.1
  c0.6-1.7,1.9-3.7,1.9-3.7s1.2-2.3,2.1-2.9c0,0,0.1-0.3,1.3-0.2c1.1,0.1,7.3,0.4,7.3,0.4l0.1-2.3c6.7-0.9,13.5-1.4,20.2-1.3
  c0,0.6,0,1.2-0.1,1.8c0,0,4.4-2,8.1-2c0,0,0.4,0,0.8,0.4c0.3,0.4,2.4,3,2.7,3.4c0.2,0.4,1.2,1.7,1.8,3C59.3,26,58.8,27.3,58.4,27.8z
  "/>
  <path class="st1" d="M56.5,21.7c0.5,0.6,0.9,1.1,1,1.3c0.2,0.4,1.2,1.7,1.8,3c0,0-0.4,1.3-0.9,1.8s-1.3,0.7-1.5-0.6S56.7,25,56.7,25
  s-1.9-3.4-2.7-3.5c-0.7,0-5.8,3.5-7.2,5c-1.2,1.3-1.4,1.2-1.4,3.5c0,1.5,0.2,6.6,0.1,11.2c1.8,0.2,4.5,0.7,5.3,1.9
  c0,0-0.3-7.2,7.8-3.4c0,0,0.3-9.8,11.5-7.3C70.2,32.4,64.5,25.4,56.5,21.7z"/>
  <path class="st1" d="M45.9,19.4c0.1-8.5-1.4-16.5-1.4-16.5s-0.1-1.3-0.9-0.2c-0.7,1.1-1.2,4-1.2,4C35,6.1,29.6,6.9,29.6,6.9
  c-0.8-2.7-2.2-4-2.9-3.7C26.1,3.5,26,6.5,26,6.5l-0.3,14.2C32.4,19.8,39.2,19.3,45.9,19.4z"/>
  <path class="st2" d="M45.4,47.1c0.1-1.1,0.2-2.5,0.2-4.1c0,0-2.2,0.6-8.1,2.2c-6,1.6-7.8,1.8-7.8,1.8l1.1,5c0,0.1,0,0.2,0.1,0.3
  c1.5,1,3.1,1.8,4.8,2.6c4.4-2.2,6.9-4.1,6.9-4.1c0,0,0,0,0,0.1C43.6,49.8,44.6,48.5,45.4,47.1z"/>
  <path d="M32,16.2c0-0.1,1,0.7,1.4,0.9c0.4,0.2,0.6,0.4,0.6,0.6c0,0.2-0.3,0.3-0.6,0.3s-0.9-0.1-1-0.3c0,0,0.6,0,0.9,0h0.3
  C33.7,17.8,32.3,16.7,32,16.2z"/>
  <path d="M39.5,16.3c0,0-1.1,1.3-1.1,1.3c0,0.1-0.2,0.3,0.2,0.3c0.4,0,1.1-0.2,1.2-0.3c0.1-0.1,0.1-0.2-0.1-0.2c-0.2,0-0.7,0-1,0.1
  L39.5,16.3C39.6,16.3,39.6,16.2,39.5,16.3z"/>
  <path d="M36.4,22.4c0,0,0.8-0.4,1.1-1c0.3-0.7,0-0.9-0.4-1s-1.3,0-1.7,0.3c-0.4,0.4-0.3,0.7-0.1,1C35.5,22,36.1,22.4,36.4,22.4z"/>
  <path class="st1" d="M35.9,23.7c0,0-0.2,0.4-0.5,0.6c-0.2,0.2-0.6,0.4-1,0.4c-0.6,0-1.1-0.2-1.5-0.4c-0.2-0.1-0.4-0.3-0.5-0.4
  c-0.2-0.2-0.4-0.3-0.4-0.3s0.8,4.1,2.6,4.8c1.8,0.7,2.2-0.8,2.2-1.1c0-0.3,0-2.1-0.8-3.2C36.1,23.6,36,23.8,35.9,23.7z"/>
  <g>
    <path d="M34.3,24.8C34.3,24.8,34.3,24.8,34.3,24.8c-1.3,0-2.3-1.4-2.4-1.4c0-0.1,0-0.2,0-0.2c0.1,0,0.2,0,0.2,0c0,0,1,1.3,2.1,1.3
    c0,0,0,0,0,0c0.6,0,1.1-0.3,1.6-1l0.1-0.2l0.1,0.2c0,0,0.4,0.8,1,0.8c0.5,0,1.1-0.4,1.6-1.3c0-0.1,0.1-0.1,0.2,0
    c0.1,0,0.1,0.1,0,0.2c-0.6,1-1.3,1.5-1.9,1.4c-0.6,0-0.9-0.5-1.1-0.8C35.5,24.5,34.9,24.8,34.3,24.8z"/>
  </g>
  <ellipse transform="matrix(0.9227 -0.3855 0.3855 0.9227 -10.5155 16.6462)" class="st0" cx="36.3" cy="34.5" rx="3.8" ry="3.8"/>
  <path class="st3" d="M41.2,31.5l-3.1,1.3l1.1-5.6l-7.5,9.8l3.1-1.3l-1.1,5.6L41.2,31.5z M33.8,35.3l4.1-5.4l-0.8,4l2-0.8L35,38.5
  l0.8-4L33.8,35.3z"/>
  <ellipse transform="matrix(0.9227 -0.3855 0.3855 0.9227 -10.1149 15.0347)" class="st3" cx="32.4" cy="32.7" rx="1.1" ry="1.1"/>
  <ellipse transform="matrix(0.9227 -0.3855 0.3855 0.9227 -11.304 17.8881)" class="st3" cx="39" cy="37.1" rx="0.8" ry="0.8"/>
  <ellipse transform="matrix(0.9227 -0.3855 0.3855 0.9227 -10.5603 18.1253)" class="st3" cx="39.9" cy="35.4" rx="0.3" ry="0.3"/>
  <path class="st1" d="M45.9,21.2c0,0-2.6,2.3-5.1,5.2s-5.3,4.9-5.3,4.9c-0.2-0.5-1.6-1.5-1.6-1.5s-3.1-2.1-5.2-3.8
  c-1.2-1-2.4-2.2-3.1-3c-0.3,0-1.1-0.1-2-0.1c4.7,7,12,8.8,12,8.8c0.9-0.1,3.3-1.9,5.1-3.3c1.8-1.4,4.8-4.5,6-5.9
  c0.6-0.7,0.9-1.4,1.1-2C46.6,20.8,45.9,21.2,45.9,21.2z"/>
  <polygon class="st0" points="65.2,3.5 56.8,12.9 55.5,10.9 63.7,0 "/>
  <polygon class="st0" points="62.6,17.3 68.2,13.1 67.4,9.4 62,14.2 "/>
  <polygon class="st0" points="59.9,49.4 66.1,52.6 69.1,50.2 62.4,47.5 "/>
  <polygon class="st0" points="2,6 5,2.6 14.3,11.6 13.1,13.9 "/>
  <polygon class="st0" points="7.4,16.3 2.7,13.2 0.3,17 5.4,19.4 "/>
  <polygon class="st0" points="13.9,52.6 9.4,55.9 12.2,59.5 16.2,55.5 "/>
  <path class="st1" d="M25.9,28c0,0-3.8-1.4-5.2-1.8c-1.4-0.4-2.3-0.7-4,0.6c-1.8,1.3-1.7,3.9-1.7,3.9s0.4,1,0.5,1.4
  c0,0.5-1.2,0.4-2,0.4s-0.9-1.4-0.3-3.1c0.6-1.7,1.9-3.7,1.9-3.7c-5.4,2.8-15,9.4-15,9.4s2.9-0.3,8.2,0.2c5.3,0.5,5,4.7,5,4.7
  s3.5-1,5.6-1.1c2.1-0.1,2.3,2.1,2.3,2.1l0.5,3.9c0,0,0.5-0.6,2.7-2.4c1.9-1.5,3.9-1.4,4.4-1.3c0,0,0,0,0,0L25.9,28z"/>
  <g>
    <path class="st3" d="M85.7,42c-0.9-1.2-1.4-2.9-1.4-5.2v-7.5c0-2.3,0.5-4.1,1.4-5.2c0.9-1.2,2.5-1.8,4.8-1.8c2.1,0,3.7,0.5,4.5,1.6
    c0.9,1,1.3,2.5,1.3,4.5v1.8h-4.1v-1.9c0-0.6,0-1.1-0.1-1.5c-0.1-0.4-0.2-0.7-0.5-0.9c-0.2-0.2-0.6-0.4-1.2-0.4
    c-0.8,0-1.3,0.3-1.5,0.8c-0.2,0.5-0.3,1.2-0.3,2.2v9.5c0,1,0.1,1.7,0.4,2.2c0.3,0.5,0.7,0.7,1.4,0.7c0.7,0,1.2-0.2,1.4-0.7
    c0.2-0.5,0.3-1.2,0.3-2.2v-2h4.1v1.7c0,2-0.4,3.6-1.3,4.6c-0.9,1.1-2.4,1.6-4.6,1.6C88.2,43.8,86.6,43.2,85.7,42z"/>
    <path class="st3" d="M101.9,22.6h4.7l4,21h-3.9l-0.8-4.6h-3.3l-0.8,4.6h-4L101.9,22.6z M105.6,36.3l-1.3-8.4l-1.2,8.4H105.6z"/>
    <path class="st3" d="M113.7,25.7h-3.2v-3.2h10.7v3.2H118v17.8h-4.3V25.7z"/>
    <path class="st4" d="M129.6,22.6h8.1v2.2h-5.2v6.9h4.2v2.1h-4.2v7.7h5.3v2.1h-8.2V22.6z"/>
    <path class="st4" d="M140.1,22.6h2l6,13.9V22.6h2.4v21h-1.9l-6-14.3v14.3h-2.5V22.6z"/>
    <path class="st4" d="M153.8,22.6h8.1v2.2h-5.2v6.9h4.2v2.1h-4.2v7.7h5.3v2.1h-8.2V22.6z"/>
    <path class="st4" d="M164.4,22.6h4.2c2.1,0,3.7,0.4,4.7,1.3c1,0.9,1.5,2.3,1.5,4.3c0,2.7-0.9,4.3-2.6,4.9l3,10.5h-2.8l-2.7-9.8
    h-2.3v9.8h-2.9V22.6z M168.4,31.6c1.3,0,2.2-0.2,2.7-0.8c0.5-0.5,0.8-1.4,0.8-2.7c0-0.9-0.1-1.5-0.3-2c-0.2-0.5-0.5-0.9-1-1.1
    c-0.5-0.2-1.2-0.3-2-0.3h-1.3v6.9H168.4z"/>
    <path class="st4" d="M178.7,42c-0.8-1.2-1.3-3-1.3-5.3v-7c0-1.6,0.2-3,0.5-4c0.3-1,0.9-1.8,1.7-2.4c0.8-0.6,1.9-0.8,3.4-0.8
    c1.9,0,3.3,0.5,4.2,1.5c0.9,1,1.3,2.5,1.3,4.6v0.8h-2.7v-0.6c0-1-0.1-1.8-0.2-2.3c-0.1-0.5-0.4-1-0.8-1.2c-0.4-0.3-1-0.4-1.7-0.4
    c-0.8,0-1.4,0.2-1.8,0.6c-0.4,0.4-0.7,0.9-0.8,1.5c-0.1,0.6-0.2,1.4-0.2,2.5V37c0,1.6,0.2,2.8,0.6,3.5c0.4,0.7,1.1,1,2.2,1
    c1.1,0,1.8-0.4,2.2-1.1c0.4-0.8,0.6-2,0.6-3.6v-1.4h-2.7v-2.1h5.3v10.4h-1.8l-0.3-2.4c-0.7,1.8-1.9,2.7-3.7,2.7
    C180.9,43.8,179.5,43.2,178.7,42z"/>
    <path class="st4" d="M194.7,36.1l-4.5-13.6h2.7l3.2,10.1l3.2-10.1h2.7l-4.5,13.6v7.4h-2.8V36.1z"/>
  </g>
</symbol><symbol id="logo-footer" viewBox="0 0 127.8 23.4">
  <style type="text/css">
    .st0 {
      fill: #111111;
    }
  </style>
  <g>
    <path class="st0" d="M1.6,21.5c-1-1.3-1.6-3.2-1.6-5.6V7.6c0-2.5,0.5-4.4,1.5-5.7C2.6,0.6,4.3,0,6.8,0c2.4,0,4.1,0.6,5.1,1.7
    c1,1.1,1.5,2.8,1.5,4.9v2H8.5V6.3c0-0.9-0.1-1.6-0.3-2S7.6,3.5,6.8,3.5c-0.7,0-1.2,0.2-1.4,0.7S5.1,5.5,5.1,6.4v10.7
    c0,0.9,0.1,1.6,0.4,2.1c0.2,0.5,0.7,0.7,1.4,0.7c0.7,0,1.1-0.2,1.3-0.7c0.2-0.5,0.3-1.2,0.3-2.1v-2.4h4.9v2c0,2.1-0.5,3.8-1.5,5
    c-1,1.2-2.7,1.8-5.1,1.8C4.4,23.4,2.6,22.8,1.6,21.5z"/>
    <path class="st0" d="M19.3,0.3h5.7l4.2,22.8h-4.6l-0.8-4.8h-3.3l-0.8,4.8H15L19.3,0.3z M23.4,15.3l-1.2-8.9L21,15.3H23.4z"/>
    <path class="st0" d="M32.7,4.1h-3.4V0.3h11.9v3.7h-3.4v19.1h-5.1V4.1z"/>
    <path class="st0" d="M50.3,0.3h8.8v2.4h-5.7v7.5h4.6v2.3h-4.6v8.4h5.7v2.3h-8.9V0.3z"/>
    <path class="st0" d="M61.7,0.3h2.2l6.5,15.1V0.3h2.6v22.8h-2L64.4,7.5v15.6h-2.7V0.3z"/>
    <path class="st0" d="M76,0.3h8.8v2.4h-5.7v7.5h4.6v2.3h-4.6v8.4h5.7v2.3H76V0.3z"/>
    <path class="st0" d="M87.4,0.3H92c2.3,0,4,0.5,5.1,1.4c1.1,0.9,1.6,2.5,1.6,4.6c0,2.9-0.9,4.7-2.8,5.3l3.2,11.4H96l-3-10.7h-2.5
    v10.7h-3.2V0.3z M91.8,10.1c1.4,0,2.3-0.3,2.9-0.8c0.6-0.5,0.9-1.5,0.9-3c0-0.9-0.1-1.7-0.3-2.2c-0.2-0.5-0.6-0.9-1.1-1.2
    c-0.5-0.3-1.3-0.4-2.2-0.4h-1.4v7.5H91.8z"/>
    <path class="st0" d="M102.7,21.4c-0.9-1.3-1.4-3.2-1.4-5.8V8c0-1.8,0.2-3.2,0.5-4.3c0.4-1.1,1-2,1.9-2.6s2.1-0.9,3.7-0.9
    c2.1,0,3.6,0.5,4.5,1.6s1.4,2.7,1.4,5v0.8h-3V6.9c0-1.1-0.1-1.9-0.2-2.5c-0.1-0.6-0.4-1-0.8-1.3c-0.4-0.3-1-0.5-1.9-0.5
    c-0.9,0-1.5,0.2-2,0.6s-0.7,0.9-0.8,1.6s-0.2,1.6-0.2,2.7V16c0,1.7,0.2,3,0.6,3.8c0.4,0.8,1.2,1.1,2.4,1.1c1.2,0,2-0.4,2.4-1.2
    c0.4-0.8,0.7-2.1,0.7-4v-1.6h-2.9v-2.3h5.8v11.3h-2l-0.3-2.6c-0.7,1.9-2.1,2.9-4.1,2.9C105.1,23.4,103.6,22.7,102.7,21.4z"/>
    <path class="st0" d="M119.8,15.1l-4.9-14.7h3l3.5,11l3.4-11h3l-4.9,14.7v8h-3V15.1z"/>
  </g>
</symbol><symbol id="logo-mobile" viewBox="0 0.002 190.4 37.598">
  <style type="text/css">
    .st0 {
      fill: #FDC305;
    }
    .st1 {
      fill: #F06351;
    }
  </style>
  <g>
    <path class="st0" d="M6.1,20.7l0.1-2.3c6.7-0.9,13.4-1.4,20.2-1.3c0,0.6,0,1.2-0.1,1.8c0,0,2.9-1.3,6-1.8
    c-2.4-6.3-8.5-10.8-15.6-10.8c-8.3,0-15.2,6.1-16.5,14.1C2.4,20.5,6.1,20.7,6.1,20.7z"/>
    <path class="st0" d="M27.2,24.2c-1.2,1.3-1.4,1.2-1.4,3.5c0,0.9,0,4.9,0,9.2c4.5-3,7.4-8.1,7.4-13.9c0-1.1-0.1-2.1-0.3-3.1
    C31.2,21,28.2,23.1,27.2,24.2z"/>
    <path class="st0" d="M6.4,25.7c0,0-3.8-1.4-5.2-1.8c-0.4-0.1-0.8-0.2-1.2-0.3c0.2,6,3.7,11.3,8.7,14L6.4,25.7z"/>
  </g>
  <path class="st1" d="M26.3,17.1c0.1-8.5-1.4-16.5-1.4-16.5S24.7-0.6,24,0.4c-0.7,1.1-1.2,3.9-1.2,3.9c-7.4-0.4-12.8,0.3-12.8,0.3
  C9.2,2,7.9,0.8,7.2,1C6.5,1.3,6.5,4.4,6.5,4.4L6.1,18.5C12.8,17.5,19.6,17.1,26.3,17.1z"/>
  <path d="M12.4,14c0-0.1,1,0.7,1.4,0.9c0.4,0.2,0.6,0.4,0.6,0.6c0,0.2-0.3,0.3-0.6,0.3s-0.9-0.1-1-0.3c0,0,0.6,0,0.9,0h0.3
  C14.1,15.6,12.7,14.5,12.4,14z"/>
  <path d="M19.9,14.1c0,0-1,1.3-1.1,1.3c0,0.1-0.2,0.3,0.2,0.3s1.1-0.2,1.2-0.3c0.1-0.1,0.1-0.2-0.1-0.2c-0.2,0-0.7,0-1,0.1L19.9,14.1
  C19.9,14.1,20,14,19.9,14.1z"/>
  <path d="M16.8,20.2c0,0,0.8-0.4,1.1-1c0.3-0.7,0-0.9-0.4-1c-0.5-0.1-1.3,0-1.7,0.3c-0.4,0.4-0.3,0.7-0.1,1
  C15.9,19.7,16.5,20.1,16.8,20.2z"/>
  <path class="st1" d="M16.3,21.5c0,0-0.2,0.4-0.5,0.6c-0.2,0.2-0.6,0.4-1,0.4c-0.6,0-1.1-0.2-1.5-0.4c-0.2-0.1-0.4-0.3-0.5-0.4
  c-0.2-0.2-0.4-0.3-0.4-0.3s0.7,4.1,2.6,4.7c1.8,0.6,2.1-0.7,2.2-1.1c0-0.3,0-2.1-0.8-3.2C16.5,21.4,16.4,21.6,16.3,21.5z"/>
  <g>
    <path d="M14.7,22.6C14.7,22.6,14.7,22.6,14.7,22.6c-1.3,0-2.3-1.4-2.3-1.4c0-0.1,0-0.2,0-0.2c0.1,0,0.2,0,0.2,0c0,0,1,1.3,2.1,1.3
    c0,0,0,0,0,0c0.6,0,1.1-0.3,1.6-1l0.1-0.2l0.1,0.2c0,0,0.4,0.8,1,0.8c0.5,0,1.1-0.4,1.6-1.3c0-0.1,0.1-0.1,0.2,0
    c0.1,0,0.1,0.1,0,0.2c-0.6,1-1.3,1.4-1.9,1.4c-0.6,0-0.9-0.5-1.1-0.8C15.9,22.3,15.3,22.6,14.7,22.6z"/>
  </g>
  <path class="st1" d="M26.2,18.9c0,0-2.5,2.2-5.1,5.2S15.9,29,15.9,29c-0.2-0.5-1.6-1.5-1.6-1.5s-3.1-2.1-5.2-3.8
  c-1.2-1-2.3-2.2-3.1-3c-0.3,0-1.1-0.1-2-0.1c4.7,7,12,8.8,12,8.8c0.9-0.1,3.3-1.9,5.1-3.3c1.8-1.4,4.8-4.5,5.9-5.9
  c0.6-0.7,0.9-1.4,1.1-2C27,18.6,26.2,18.9,26.2,18.9z"/>
  <g transform="matrix(1, 0, 0, 1, 90, 10.200001)">
    <path class="st0" d="M1.2,16.6c-0.8-1-1.2-2.5-1.2-4.4V5.9c0-1.9,0.4-3.4,1.2-4.4C2,0.5,3.4,0,5.4,0c1.9,0,3.2,0.4,4,1.3
    c0.8,0.9,1.2,2.1,1.2,3.8v1.5H6.6V4.8c0-0.7-0.1-1.2-0.2-1.6C6.3,2.9,5.9,2.7,5.4,2.7S4.4,2.9,4.3,3.3C4.1,3.7,4,4.2,4,4.9v8.3
    c0,0.7,0.1,1.2,0.3,1.6c0.2,0.4,0.5,0.6,1.1,0.6c0.5,0,0.9-0.2,1-0.6c0.2-0.4,0.2-0.9,0.2-1.6v-1.8h3.9v1.5c0,1.6-0.4,2.9-1.2,3.9
    c-0.8,0.9-2.1,1.4-4,1.4C3.4,18.1,2,17.6,1.2,16.6z" style="fill: rgb(17, 17, 17);"/>
    <path class="st0" d="M15.2,0.2h4.5L23,17.8h-3.6l-0.6-3.7h-2.6l-0.6,3.7h-3.7L15.2,0.2z M18.4,11.8l-0.9-6.9l-0.9,6.9H18.4z" style="fill: rgb(17, 17, 17);"/>
    <path class="st0" d="M25.8,3.1h-2.7V0.2h9.3v2.9h-2.7v14.7h-4V3.1z" style="fill: rgb(17, 17, 17);"/>
    <path class="st0" d="M39.5,0.2h6.9v1.8H42v5.8h3.6v1.7H42v6.4h4.5v1.8h-7V0.2z" style="fill: rgb(17, 17, 17);"/>
    <path class="st0" d="M48.5,0.2h1.7l5.1,11.7V0.2h2.1v17.6h-1.6l-5.1-12v12h-2.1V0.2z" style="fill: rgb(17, 17, 17);"/>
    <path class="st0" d="M59.8,0.2h6.9v1.8h-4.4v5.8h3.6v1.7h-3.6v6.4h4.5v1.8h-7V0.2z" style="fill: rgb(17, 17, 17);"/>
    <path class="st0" d="M68.8,0.2h3.6c1.8,0,3.1,0.4,4,1.1s1.3,1.9,1.3,3.6c0,2.3-0.7,3.6-2.2,4.1l2.5,8.8h-2.4l-2.3-8.3h-1.9v8.3
    h-2.5V0.2z M72.2,7.8c1.1,0,1.8-0.2,2.3-0.6C75,6.8,75.2,6,75.2,4.9c0-0.7-0.1-1.3-0.2-1.7s-0.4-0.7-0.9-0.9
    c-0.4-0.2-1-0.3-1.7-0.3h-1.1v5.8H72.2z" style="fill: rgb(17, 17, 17);"/>
    <path class="st0" d="M80.8,16.5c-0.7-1-1.1-2.5-1.1-4.5V6.2c0-1.4,0.1-2.5,0.4-3.4c0.3-0.9,0.8-1.5,1.5-2c0.7-0.5,1.7-0.7,2.9-0.7
    c1.6,0,2.8,0.4,3.6,1.2c0.7,0.8,1.1,2.1,1.1,3.9v0.7h-2.3V5.3c0-0.8-0.1-1.5-0.2-1.9c-0.1-0.5-0.3-0.8-0.7-1
    C85.7,2.1,85.2,2,84.6,2c-0.7,0-1.2,0.2-1.5,0.5c-0.3,0.3-0.6,0.7-0.7,1.2c-0.1,0.5-0.1,1.2-0.1,2.1v6.5c0,1.3,0.2,2.3,0.5,2.9
    c0.3,0.6,1,0.9,1.9,0.9c0.9,0,1.6-0.3,1.9-1c0.3-0.6,0.5-1.7,0.5-3.1v-1.2h-2.3V9.1h4.5v8.7h-1.6l-0.2-2c-0.6,1.5-1.6,2.2-3.2,2.2
    C82.7,18,81.5,17.5,80.8,16.5z" style="fill: rgb(17, 17, 17);"/>
    <path class="st0" d="M94.3,11.6L90.4,0.2h2.3l2.7,8.5l2.7-8.5h2.3l-3.8,11.4v6.2h-2.4V11.6z" style="fill: rgb(17, 17, 17);"/>
  </g>
</symbol><symbol id="logo-tablet" viewBox="0 0 172.3 57.1">
  <style type="text/css">
    .st0 {
      fill: #FDC305;
    }
    .st1 {
      fill: #F06351;
    }
    .st2 {
      fill: #E55645;
    }
    .st3 {
      fill: #111111;
    }
    .st4 {
      fill: #444444;
    }
  </style>
  <path class="st0" d="M59.6,21.7C54.2,8.7,39.3,2.6,26.3,8S7.1,28.4,12.6,41.4c3.6,8.5,11.3,14.1,19.8,15.4c-0.6-2.1-1.2-4.4-1.7-6.8
  c1.5,1,3.1,1.8,4.7,2.5c0,0,0,0,0,0c0,0,0.1,2.1,0.3,4.5c1.8,0,3.5-0.1,5.3-0.5c0-0.2,0-0.4,0-0.8c0.3-1.9,1.1-5.2,1.2-7.4
  c1.1-1.1,2.1-2.3,2.9-3.7c0,0,0,0,0,0c0,0.1,0,0.3-0.1,0.4c-0.6,4.2-1.7,8.8-2.4,10c-0.2,0.4-0.5,0.9-0.8,1.1
  c1.4-0.3,2.7-0.8,4.1-1.3C58.9,49.7,65.1,34.7,59.6,21.7z M58.2,25.5c-0.4,0.4-1.3,0.7-1.5-0.6c-0.1-1.3-0.2-2.2-0.2-2.2
  s-1.9-3.4-2.6-3.5c-0.7,0-5.8,3.5-7.1,4.9c-1.2,1.3-1.4,1.2-1.4,3.5c0,1.7,0.2,8.1,0.1,13.1v0v0c0,0-2.2,0.6-8.1,2.2
  c-5.9,1.6-7.8,1.8-7.8,1.8l-1-5.8c0,0,0,0,0,0c0,0,0,0,0,0c0,0,0,0,0,0c0,0,0,0,0,0c0,0,0,0,0,0c0,0,0,0,0,0l-2.6-13.1
  c0,0-3.8-1.4-5.2-1.8c-1.4-0.4-2.3-0.7-4,0.6c-1.8,1.3-1.7,3.8-1.7,3.8s0.4,1,0.5,1.4c0,0.5-1.2,0.4-2,0.4s-0.9-1.4-0.3-3.1
  c0.6-1.7,1.9-3.7,1.9-3.7s1.2-2.3,2.1-2.9c0,0,0.1-0.3,1.2-0.2c1.1,0.1,7.2,0.4,7.2,0.4l0.1-2.3c6.7-0.9,13.4-1.4,20.2-1.3
  c0,0.6,0,1.2-0.1,1.8c0,0,4.4-2,8.1-2c0,0,0.4,0,0.8,0.4c0.3,0.4,2.4,3,2.6,3.4c0.2,0.4,1.2,1.7,1.8,3C59,23.7,58.6,25.1,58.2,25.5z
  "/>
  <path class="st1" d="M56.2,19.4c0.5,0.6,0.9,1.1,1,1.3c0.2,0.4,1.2,1.7,1.8,3c0,0-0.4,1.3-0.9,1.8c-0.4,0.4-1.3,0.7-1.5-0.6
  c-0.1-1.3-0.2-2.2-0.2-2.2s-1.9-3.4-2.6-3.5c-0.7,0-5.8,3.5-7.1,4.9c-1.2,1.3-1.4,1.2-1.4,3.5c0,1.5,0.2,6.6,0.1,11.2
  c1.8,0.2,4.4,0.7,5.2,1.9c0,0-0.3-7.1,7.8-3.4c0,0,0.3-9.7,11.4-7.2C69.9,30.1,64.2,23.1,56.2,19.4z"/>
  <path class="st1" d="M45.7,17.1c0.1-8.5-1.4-16.5-1.4-16.5s-0.1-1.3-0.9-0.2c-0.7,1.1-1.2,3.9-1.2,3.9c-7.4-0.4-12.8,0.3-12.8,0.3
  c-0.8-2.7-2.2-3.9-2.9-3.6c-0.7,0.3-0.7,3.3-0.7,3.3l-0.3,14.1C32.2,17.5,39,17.1,45.7,17.1z"/>
  <path class="st2" d="M45.2,44.8c0.1-1.1,0.2-2.5,0.2-4c0,0-2.2,0.6-8.1,2.2c-5.9,1.6-7.8,1.8-7.8,1.8l1.1,5c0,0.1,0,0.2,0.1,0.3
  c1.5,1,3.1,1.8,4.7,2.5c4.4-2.2,6.8-4.1,6.8-4.1c0,0,0,0,0,0.1C43.4,47.4,44.4,46.1,45.2,44.8z"/>
  <path d="M31.9,14c0-0.1,1,0.7,1.4,0.9s0.6,0.4,0.6,0.6s-0.3,0.3-0.6,0.3s-0.9-0.1-1-0.3c0,0,0.6,0,0.9,0h0.3
  C33.5,15.6,32.1,14.5,31.9,14z"/>
  <path d="M39.3,14.1c0,0-1,1.3-1.1,1.3s-0.2,0.3,0.2,0.3s1.1-0.2,1.2-0.3s0.1-0.2-0.1-0.2c-0.2,0-0.7,0-1,0.1L39.3,14.1
  C39.4,14.1,39.4,14,39.3,14.1z"/>
  <path d="M36.2,20.2c0,0,0.8-0.4,1.1-1s0-0.9-0.4-1c-0.5-0.1-1.3,0-1.7,0.3c-0.4,0.4-0.3,0.7-0.1,1C35.3,19.7,35.9,20.1,36.2,20.2z"/>
  <path class="st1" d="M35.8,21.4c0,0-0.2,0.4-0.5,0.6c-0.2,0.2-0.6,0.4-1,0.4c-0.6,0-1.1-0.2-1.5-0.4c-0.2-0.1-0.4-0.3-0.5-0.4
  c-0.2-0.2-0.4-0.3-0.4-0.3s0.7,4.1,2.6,4.7c1.8,0.6,2.1-0.7,2.2-1.1c0-0.3,0-2.1-0.8-3.2C35.9,21.4,35.9,21.6,35.8,21.4z"/>
  <g>
    <path d="M34.2,22.6C34.1,22.6,34.1,22.6,34.2,22.6c-1.3,0-2.3-1.4-2.3-1.4c0-0.1,0-0.2,0-0.2c0.1,0,0.2,0,0.2,0c0,0,1,1.3,2.1,1.3
    c0,0,0,0,0,0c0.6,0,1.1-0.3,1.6-1l0.1-0.2l0.1,0.2c0,0,0.4,0.8,1,0.8c0.5,0,1.1-0.4,1.6-1.3c0-0.1,0.1-0.1,0.2,0
    c0.1,0,0.1,0.1,0,0.2c-0.6,1-1.3,1.4-1.9,1.4c-0.6,0-0.9-0.5-1.1-0.8C35.4,22.3,34.8,22.6,34.2,22.6z"/>
  </g>
  <path class="st3" d="M41.1,29.2l-3.1,1.3l1.1-5.6l-7.5,9.7l3.1-1.3l-1.1,5.6L41.1,29.2z M33.7,33l4.1-5.4l-0.8,4l2-0.8l-4.1,5.4
  l0.8-4L33.7,33z"/>
  <path class="st1" d="M45.7,18.9c0,0-2.5,2.2-5.1,5.2c-2.5,2.9-5.3,4.9-5.3,4.9c-0.2-0.5-1.6-1.5-1.6-1.5s-3.1-2.1-5.2-3.8
  c-1.2-1-2.3-2.2-3.1-3c-0.3,0-1.1-0.1-2-0.1c4.7,7,12,8.8,12,8.8c0.9-0.1,3.3-1.9,5.1-3.3s4.8-4.5,5.9-5.9c0.6-0.7,0.9-1.4,1.1-2
  C46.4,18.6,45.7,18.9,45.7,18.9z"/>
  <path class="st1" d="M25.8,25.7c0,0-3.8-1.4-5.2-1.8c-1.4-0.4-2.3-0.7-4,0.6c-1.8,1.3-1.7,3.8-1.7,3.8s0.4,1,0.5,1.4
  c0,0.5-1.2,0.4-2,0.4s-0.9-1.4-0.3-3.1c0.6-1.7,1.9-3.7,1.9-3.7c-5.4,2.8-15,9.4-15,9.4s2.9-0.3,8.2,0.2c5.2,0.5,4.9,4.7,4.9,4.7
  s3.5-1,5.6-1.1c2.1-0.1,2.3,2.1,2.3,2.1l0.5,3.8c0,0,0.5-0.6,2.6-2.4c1.9-1.5,3.9-1.4,4.4-1.3c0,0,0,0,0,0L25.8,25.7z"/>
  <g>
    <path class="st3" d="M89.6,37.1c-0.7-0.9-1-2.1-1-3.7v-5.3c0-1.6,0.3-2.9,1-3.7c0.7-0.8,1.8-1.3,3.4-1.3c1.5,0,2.6,0.4,3.2,1.1
    c0.6,0.7,0.9,1.8,0.9,3.2v1.3h-2.9v-1.4c0-0.4,0-0.8-0.1-1.1c0-0.3-0.2-0.5-0.3-0.7c-0.2-0.2-0.5-0.3-0.8-0.3
    c-0.6,0-0.9,0.2-1.1,0.5c-0.2,0.4-0.2,0.9-0.2,1.6v6.8c0,0.7,0.1,1.2,0.3,1.6c0.2,0.3,0.5,0.5,1,0.5c0.5,0,0.8-0.2,1-0.5
    c0.1-0.3,0.2-0.9,0.2-1.6v-1.5h2.9v1.2c0,1.4-0.3,2.5-0.9,3.3c-0.6,0.8-1.7,1.2-3.2,1.2C91.3,38.4,90.2,38,89.6,37.1z"/>
    <path class="st3" d="M101.1,23.3h3.4l2.9,14.9h-2.8l-0.6-3.3h-2.4l-0.6,3.3h-2.9L101.1,23.3z M103.7,33l-0.9-6l-0.9,6H103.7z"/>
    <path class="st3" d="M109.5,25.5h-2.3v-2.2h7.6v2.2h-2.3v12.7h-3.1V25.5z"/>
    <path class="st4" d="M120.8,23.3h5.8v1.5h-3.7v4.9h3v1.5h-3v5.5h3.7v1.5h-5.8V23.3z"/>
    <path class="st4" d="M128.3,23.3h1.4l4.2,9.9v-9.9h1.7v14.9h-1.3L130.1,28v10.2h-1.8V23.3z"/>
    <path class="st4" d="M138,23.3h5.8v1.5h-3.7v4.9h3v1.5h-3v5.5h3.7v1.5H138V23.3z"/>
    <path class="st4" d="M145.5,23.3h3c1.5,0,2.6,0.3,3.3,0.9c0.7,0.6,1.1,1.6,1.1,3c0,1.9-0.6,3.1-1.8,3.5l2.1,7.5h-2l-2-7h-1.6v7
    h-2.1V23.3z M148.4,29.7c0.9,0,1.5-0.2,1.9-0.5c0.4-0.4,0.6-1,0.6-1.9c0-0.6-0.1-1.1-0.2-1.4c-0.1-0.3-0.4-0.6-0.7-0.8
    c-0.3-0.2-0.8-0.2-1.5-0.2h-0.9v4.9H148.4z"/>
    <path class="st4" d="M155.7,37.1c-0.6-0.9-0.9-2.1-0.9-3.8v-5c0-1.2,0.1-2.1,0.4-2.8c0.2-0.7,0.7-1.3,1.2-1.7
    c0.6-0.4,1.4-0.6,2.4-0.6c1.4,0,2.4,0.3,3,1c0.6,0.7,0.9,1.8,0.9,3.3v0.6h-2v-0.5c0-0.7,0-1.3-0.1-1.6c-0.1-0.4-0.3-0.7-0.5-0.9
    c-0.3-0.2-0.7-0.3-1.2-0.3c-0.6,0-1,0.1-1.3,0.4c-0.3,0.3-0.5,0.6-0.5,1.1c-0.1,0.4-0.1,1-0.1,1.8v5.5c0,1.1,0.1,2,0.4,2.5
    c0.3,0.5,0.8,0.7,1.6,0.7c0.8,0,1.3-0.3,1.6-0.8c0.3-0.5,0.4-1.4,0.4-2.6v-1H159v-1.5h3.8v7.4h-1.3l-0.2-1.7
    c-0.5,1.3-1.4,1.9-2.7,1.9C157.3,38.4,156.3,38,155.7,37.1z"/>
    <path class="st4" d="M167.1,32.9l-3.2-9.6h1.9l2.3,7.2l2.2-7.2h2l-3.2,9.6v5.3h-2V32.9z"/>
  </g>
</symbol><symbol id="tick" viewBox="0 0 21.1 15.5">
  <polygon points="20.1,0 7.7,13.3 1,6.1 0,7.2 7.6,15.4 7.7,15.5 21,1.2 21.1,1.1 "/>
</symbol></svg>
