<svg width="35" height="37" viewBox="0 0 35 37" fill="none" xmlns="http://www.w3.org/2000/svg">
<g clip-path="url(#clip0)">
<g filter="url(#filter0_d)">
<path fill-rule="evenodd" clip-rule="evenodd" d="M19.16 23.398H12.173V21.728H17.908C21.731 21.728 24.715 20.813 26.862 18.981C29.007 17.151 30.081 14.653 30.081 11.489C30.081 9.438 29.579 7.611 28.575 6.007C27.572 4.403 26.162 3.169 24.346 2.304C22.529 1.44 20.42 1.008 18.018 1.008H5.58097V16.389H1.12097V21.728H5.58097V23.398H1.12097V28.737H5.58097V33H12.173V28.737H19.16V23.398ZM12.173 6.369H18.105C19.761 6.384 21.057 6.864 21.995 7.808C22.932 8.753 23.401 9.995 23.401 11.533C23.401 14.77 21.555 16.389 17.864 16.389H12.173V6.369Z" fill="white"/>
</g>
</g>
<defs>
<filter id="filter0_d" x="-2.34303" y="-1.456" width="35.888" height="38.92" filterUnits="userSpaceOnUse" color-interpolation-filters="sRGB">
<feFlood flood-opacity="0" result="BackgroundImageFix"/>
<feColorMatrix in="SourceAlpha" type="matrix" values="0 0 0 0 0 0 0 0 0 0 0 0 0 0 0 0 0 0 127 0"/>
<feOffset dy="1"/>
<feGaussianBlur stdDeviation="1.732"/>
<feColorMatrix type="matrix" values="0 0 0 0 0.192157 0 0 0 0 0.196078 0 0 0 0 0.207843 0 0 0 1 0"/>
<feBlend mode="normal" in2="BackgroundImageFix" result="effect1_dropShadow"/>
<feBlend mode="normal" in="SourceGraphic" in2="effect1_dropShadow" result="shape"/>
</filter>
<clipPath id="clip0">
<rect width="35" height="37" fill="white"/>
</clipPath>
</defs>
</svg>
